<svg xmlns="http://www.w3.org/2000/svg" width="853.333" height="484" version="1.0" viewBox="0 0 640 363"><path d="M412 48.6c-4.4.4-45.6 6.6-55.5 8.3-7.9 1.5-16.1 4.9-21.3 9.1-2.7 2-9.2 9.6-14.6 16.8-9.7 12.9-14.9 17.8-22.3 20.9-4 1.6-12.2 2-88.3 4.3-50.6 1.5-65 2.6-83 6-8.5 1.6-20.9 3.9-27.5 5-17.3 3-49.6 14.7-59.6 21.6-8.6 5.9-10.7 17.1-6.4 34.4 1.7 6.6 2.4 12.5 2.5 19.2 0 9.4.1 10 3.4 15.1 3 4.7 6.8 8.4 15 14.7 1.8 1.4 1.9 1.3 1.3-2.9-.9-6.7.4-8.7 6.4-10.5 10.2-3.1 11.5-2.6 19.9 6.6 8.3 9.1 8.1 9.1-3.7.1-8.8-6.6-10.7-7.1-17.1-3.9l-2.3 1.1v22.4c0 12.3.4 22.8.8 23.2.4.4 2.9 1.3 5.4 2 5.7 1.5 12.8-.1 16.5-3.8 3.4-3.4 3.1-6-1-8-3.8-1.8-5.6-6.4-5.6-14.6 0-4 .4-4.7 3.3-6.5 4.3-2.5 12.8-3.3 17.6-1.6 2.1.7 12.4 2.2 22.9 3.4 22.4 2.4 70.6 2.8 82.7.7 6.5-1.1 7-1.4 7.3-3.9.2-1.4 1-2.9 1.8-3.2 1.2-.5 1.4 3.3 1.4 25.8v26.4l4.7 1.6c8.2 2.8 17.4 1.5 22.6-3.3 4.1-3.8 3.7-7.4-1.3-9.6-4.5-2-5.6-4.6-6.7-15.1l-.6-6 5-3.2c3.8-2.5 6.1-3.2 9.9-3.2 4.3-.1 4.7-.2 2.8-1.3-1.1-.7-6.3-4.4-11.5-8.4-5.3-3.9-10.9-7.3-12.5-7.6-2.1-.3-1.7-.4 1.6-.6 5.9-.1 8.9 1.6 19.1 11.1 7.8 7.4 8.1 7.8 5.3 7.9-7.9.2-12.2 2.1-14 6.4-1.3 3.2-1.9 8.7-1.5 13.8.1 2.4 5.2 4.4 18 7.3 8.6 2 13.1 2.4 26 2.4 10.1-.1 17.7-.6 21.6-1.5 3.3-.8 6.3-1.5 6.6-1.5.4 0 1.6 2.8 2.9 6.2 5.7 16.1 16.6 30 27.7 35.4l5.8 2.9h58l5.7-2.9c3.6-1.7 8.1-5.3 12-9.5 29.6-31.3 29-97.7-1.1-128.1-8.3-8.3-18.4-12-33.3-12-3.7 0-6.8-.3-6.8-.8.1-1.5 3.6-5.1 7-7.1 3.2-1.9 5.1-2.1 19.6-2.1 18.9 0 24.6 1.2 29.9 6.6 7.9 7.9 12.4 22.1 13.2 41.9.5 11.4-1.5 47.4-3.3 61.2l-.5 4.3h6.3c5.5 0 12.5-2 56-16.6 47.1-15.9 49.7-16.6 51.4-15 2.9 3 6.1 3.6 18 3.6 8.1 0 12.3-.4 14.3-1.4 5.4-2.8 11-12.3 13.2-22.1 1.6-7.2 1.6-26.1 0-32.8-2.6-11-9.8-21.1-15.9-22.3-6.4-1.3-1.8-2.4 9.9-2.4 11.8 0 11.9 0 11.9-2.3 0-2.7-1.5-4.7-5.2-7-1.4-.9-4.6-4.4-6.9-7.7-5.2-7.4-8.7-9.4-21.4-12-11.2-2.3-14.9-3.7-19.4-7.6-2.9-2.4-17.2-23.2-25.9-37.5-7-11.6-20.5-18.7-49.2-26-7.7-2-58.9-5.1-69-4.3zm49.1 13.1c6.1 3.1 7.5 5.8 8.4 16.1.6 6.3 2.3 19.2 3.1 23.4.6 2.8.5 2.8-4.9 2.8-3 0-14.8-.8-26.3-1.7-29.9-2.4-77.4-2.4-95.9 0-7.7 1-17.9 1.7-22.7 1.5l-8.7-.3 8.2-11.5c14.7-20.7 16.5-22.4 28.2-25.3 5.3-1.3 9.2-1.8 26.5-3.3 51-4.2 48-4 65.1-4.2 13-.2 13.8-.1 19 2.5zm31.9 9c4 4.8 11 18.8 11 21.9 0 2-.5 2.4-3.2 2.4-1.8 0-4.6.9-6.3 2-1.6 1.1-3.3 2-3.6 2-1 0-2.9-16-2.9-24.3 0-4.2.4-7.7.9-7.7s2.4 1.7 4.1 3.7zm14.6-.3c12.5 4.2 14.8 5.9 20.4 15.6 3.5 5.8 14.2 30.1 13.7 30.7-.3.3-19.7-2.9-25.3-4.2-1.8-.4-2.3-1.9-3.9-10.7-2.1-12.3-4.5-19.1-9.6-27.6-2.1-3.4-3.4-6.2-3-6.2.4 0 3.9 1.1 7.7 2.4zM49.5 144.3c6 6 7.5 19.9 3.1 29.4-3.8 8.1-8.5 9.5-13.4 3.9-7.2-8.2-5.8-29.8 2.2-34.7 4.1-2.5 4.3-2.4 8.1 1.4zm225.8-1.9c4.6 1.9 8.6 6.3 11.4 12.4 3.4 7.3 3.1 19.3-.7 26.6-4.4 8.6-12.7 13.1-20.4 11.2-6.3-1.6-12.9-10.6-14.7-20-2.8-15.2 6.9-30.9 19.4-31.5 1-.1 3.2.5 5 1.3zM159 170.5c15.6 1.9 55.4 8.5 66.8 11 2 .5 2.2 1.1 2.2 6.1v5.6l-50.7-.5c-44.8-.4-91.9-2.4-97-4.2-1.4-.5-1.8-8.3-.5-10.1.4-.5 3.7-2.7 7.4-4.7 6.5-3.5 7.2-3.7 21-4.5 23.3-1.5 30.3-1.3 50.8 1.3zm434.4 1.6c4.8 5.7 7.4 20.1 5.6 31.5-1.3 8.2-5 16.8-7.9 18.3-2.3 1.3-5.6.1-7.8-2.8-1.8-2.4-4.2-10-4.8-15.1l-.5-4.5 1.3 3.7c4.4 13.5 13 8.2 13-8.2 0-10.9-3-17.2-7.8-16.3-1.6.4-2.9 1.7-4 4.2l-1.6 3.6.7-4c.6-4.2 2.7-8.9 5.2-11.8 2.3-2.6 5.7-2.1 8.6 1.4zm-182.3 15.2c7.9 5.3 14.1 17.8 17 34.1 1.7 10.1.7 31.2-2.1 40.6-11 38-36.4 35.6-46-4.5-1.8-7.3-2-28.6-.3-38 4.4-25.7 18.9-40.6 31.4-32.2zm177.9 6.5c0 3.6-1.5 7.2-3 7.2-1.3 0-2.9-6.5-2.3-9.2.3-1.3 1.1-2.9 1.6-3.6 1.6-2 3.7 1.3 3.7 5.6zm-10.3-1.6c-.3.8-.6.5-.6-.6-.1-1.1.2-1.7.5-1.3.3.3.4 1.2.1 1.9zM103.5 200c20.8 1.4 74.2 2.9 101.2 3 11.8 0 21.4.4 21.8.9.3.5-.3 3.1-1.2 5.7l-1.8 4.7-10 3.7c-10.1 3.7-11.6 4-41 6.7-4.4.5-18.1.8-30.5.7-25.2 0-30.1-.8-45-7.1-4.7-2-8.8-3.9-9.2-4.2-.4-.3-2.3-4.1-4.3-8.4l-3.5-7.9 3.7.6c2.1.4 11 1.1 19.8 1.6z"/><path d="M389.7 206c-1.4 1.2-4.1 5.1-5.9 8.8-3.2 6.5-3.3 6.9-3.3 20.2 0 13.3 0 13.6 3.3 20.3 4.1 8.3 7.8 11 13.7 10.3 3.1-.4 4.7-1.3 7.2-4.3 5.4-6.3 6.8-12 6.8-26.8 0-12.1-.2-13.4-2.7-18.8-5.1-10.9-12.7-14.7-19.1-9.7zm11.5 16.7c4.3 4.9 4.7 16.6.7 21.7-4.7 6-9.9.6-9.9-10.2 0-10.4 4.8-16.4 9.2-11.5zM84.8 230.7l-5.8 1.5v15.6l6.8 2.6c14 5.4 25.9 7.8 43 9 3.5.2 6.4.6 6.6.8 6.6 10.5 9.3 11.8 25 11.8 14.5 0 17.3-1 21.7-7.5l2.4-3.4 12-.3 12-.3.3-13.4.3-13.3-5.8.6c-13.7 1.3-44.1 1.7-59.8.7-25.2-1.7-29.3-2.1-37.5-3.6-12.6-2.3-15.3-2.4-21.2-.8z"/></svg>